<svg width="7973" height="1321" xmlns="http://www.w3.org/2000/svg" xmlns:xlink="http://www.w3.org/1999/xlink" xml:space="preserve" overflow="hidden"><defs><clipPath id="clip0"><rect x="-1699" y="893" width="935" height="933"/></clipPath><clipPath id="clip1"><rect x="-1699" y="893" width="935" height="933"/></clipPath><clipPath id="clip2"><rect x="-1699" y="893" width="935" height="933"/></clipPath></defs><g transform="translate(2023 -884)"><path d="M-559.5 1335.75-337.666 1335.75-337.666 1317.5-290.5 1354-337.666 1390.5-337.666 1372.25-559.5 1372.25Z" stroke="#000000" stroke-width="6.875" stroke-miterlimit="8" fill-rule="evenodd"/><path d="M1065.5 1335.75 1286.33 1335.75 1286.33 1317.5 1333.5 1354 1286.33 1390.5 1286.33 1372.25 1065.5 1372.25Z" stroke="#000000" stroke-width="6.875" stroke-miterlimit="8" fill-rule="evenodd"/><path d="M2723.5 1335.75 2945.33 1335.75 2945.33 1317.5 2992.5 1354 2945.33 1390.5 2945.33 1372.25 2723.5 1372.25Z" stroke="#000000" stroke-width="6.875" stroke-miterlimit="8" fill-rule="evenodd"/><path d="M4359.5 1335.75 4581.33 1335.75 4581.33 1317.5 4628.5 1354 4581.33 1390.5 4581.33 1372.25 4359.5 1372.25Z" stroke="#000000" stroke-width="6.875" stroke-miterlimit="8" fill-rule="evenodd"/><g clip-path="url(#clip0)"><g clip-path="url(#clip1)"><g clip-path="url(#clip2)"><path d="M-1677.04 1826.74C-1684.25 1823.57-1692.44 1815.23-1695.52 1807.94-1700.66 1795.78-1696.74 1753.5-1687.86 1725.39-1662.36 1644.62-1588.87 1583.34-1509.45 1576.62-1501.87 1575.98-1495.91 1575.21-1496.2 1574.92-1496.5 1574.62-1503.28 1573.02-1511.27 1571.37-1561.99 1560.9-1601.37 1523.82-1614.45 1474.23-1619.11 1456.55-1619.53 1427.16-1615.36 1409.75-1600.28 1346.79-1541.53 1302.93-1477.54 1306.87-1405.78 1311.29-1351.77 1368.56-1351.77 1440.24-1351.77 1481.55-1369.04 1518.55-1400.1 1543.74-1414.73 1555.61-1440.34 1567.79-1458.32 1571.43-1466.31 1573.05-1473.09 1574.62-1473.39 1574.92-1473.68 1575.21-1467.69 1575.98-1460.08 1576.63-1401.17 1581.61-1342.02 1618.04-1307.26 1670.76-1286.69 1701.95-1276.79 1731.35-1273.21 1771.89-1270.61 1801.45-1272.15 1808.67-1283.35 1819.45-1287.71 1823.64-1293.73 1827.43-1297.07 1828.1-1300.34 1828.76-1385.95 1829.26-1487.3 1829.22-1636 1829.16-1672.63 1828.69-1677.04 1826.74ZM-802.356 1768.5C-815.592 1762.39-819.668 1753.29-819.668 1729.86L-819.668 1712.67-1023.61 1712.67-1227.55 1712.67-1230.73 1704.01C-1247.81 1657.55-1266.89 1627.3-1298.84 1596.04-1308.58 1586.52-1321.9 1575.06-1328.44 1570.58L-1340.34 1562.42-1330.79 1548.71C-1307.52 1515.32-1296.87 1481.2-1296.91 1440.15-1296.92 1420.82-1297.71 1413.65-1301.71 1396.05L-1302.64 1391.95-1045.33 1391.95C-789.24 1391.95-787.981 1391.97-780.263 1395.7-774.615 1398.44-771.48 1401.58-768.726 1407.27-764.97 1415.03-764.947 1416.27-765.427 1583.79-765.907 1750.96-765.945 1752.54-769.668 1757.52-778.301 1769.09-791.498 1773.52-802.356 1768.5ZM-1154.96 1334.47C-1154.96 1328.27-1147.81 1302.07-1142.8 1289.9-1120.4 1235.52-1070.01 1195.3-1011.47 1185.09-994.733 1182.18-990.512 1180.57-999.594 1180.57-1002.67 1180.57-1011.08 1178.57-1018.28 1176.14-1052.7 1164.49-1079.27 1137.72-1090.6 1103.26-1097.22 1083.12-1097.56 1056.59-1091.45 1036.61-1071.21 970.392-997.825 936.864-935.544 965.383-878.808 991.362-853.202 1060.06-879.514 1115.72-895.248 1149-928.49 1174.97-962.122 1180.26L-971.827 1181.79-964.538 1183.05C-919.367 1190.9-890.068 1204.8-862.767 1231.31-848.255 1245.41-839.31 1256.96-830.096 1273.51-822.848 1286.53-813.575 1313.24-811.596 1326.8L-810.333 1335.46-982.649 1335.46C-1077.42 1335.46-1154.96 1335.01-1154.96 1334.47ZM-1612.44 1257.01C-1634.51 1253.72-1658.69 1240.67-1672.45 1224.63-1676.47 1219.94-1682.68 1210.57-1686.24 1203.81-1697.45 1182.55-1697.93 1177.32-1697.97 1076.53-1698 992.294-1697.75 985.208-1694.38 972.021-1689.72 953.775-1681.79 940.013-1668.04 926.256-1654.28 912.5-1640.52 904.578-1622.27 899.911-1608.75 896.453-1601.81 896.293-1465.66 896.293-1329.51 896.293-1322.57 896.453-1309.05 899.911-1301.27 901.901-1290.27 906.148-1284.61 909.349-1269.63 917.821-1251.86 936.616-1244.56 951.709-1234.1 973.322-1233.39 980.325-1233.35 1061.67L-1233.32 1135.02-1204.62 1178.08C-1176.61 1220.11-1175.92 1221.38-1175.92 1230.79-1175.92 1241.21-1179.19 1247.33-1188.47 1254.26-1193.47 1257.99-1194.49 1258.01-1397.91 1258.27-1510.34 1258.4-1606.88 1257.84-1612.44 1257.01ZM-1461.17 1155.15C-1455.12 1153.98-1451.25 1151.67-1446.13 1146.19-1440 1139.61-1439.24 1137.76-1439.24 1129.37-1439.24 1118.17-1444.11 1109.11-1452.63 1104.44-1457.68 1101.68-1464.51 1101.3-1509.4 1101.3-1555.07 1101.3-1561.05 1101.64-1566.42 1104.58-1578.32 1111.07-1583.6 1125.73-1578.57 1138.31-1575.07 1147.06-1567.38 1153.32-1557.84 1155.18-1548.39 1157.03-1470.78 1157-1461.17 1155.15ZM-1364.5 1049.6C-1356.11 1045.11-1349.07 1031.82-1350.65 1023.46-1352.49 1013.71-1358.52 1005.7-1366.84 1001.92-1374.11 998.619-1379.76 998.418-1466.18 998.38-1566.3 998.336-1565.44 998.252-1574.46 1008.96-1584.97 1021.46-1581.52 1040.7-1567.27 1048.95-1560.47 1052.89-1559.66 1052.92-1465.63 1052.97-1376.51 1053.01-1370.47 1052.8-1364.5 1049.6Z"/></g></g></g><text font-family="Arial,Arial_MSFontService,sans-serif" font-weight="700" font-size="128" transform="matrix(1 0 0 1 -1945.59 2092)">Stakeholder Interviews</text><g><g><g><path d="M8.77176 53.4915C48.6642 79.7782 106.089 85.2227 152.576 90.1997 259.055 101.599 364.547 100.441 471.131 91.874 519.228 88.008 590.856 83.4254 629.498 51.6712 620.63 40.1897 606.538 35.877 593.092 31.6941 564.684 22.8567 535.153 17.4781 505.717 13.4446 387.205-2.79471 267.639 0.451111 148.936 11.488 113.929 14.7429 76.7728 21.1642 43.3577 32.2938 30.9333 36.432 14.8644 41.1042 8.77176 53.4915M8.77176 89.8977 8.77176 217.32C8.77176 229.895 3.90938 255.639 11.6905 266.08 19.0808 275.998 37.5259 279.891 48.8186 283.106 82.1306 292.591 116.333 298.916 150.756 302.783 266.255 315.757 383.047 315.152 498.436 301.336 528.978 297.679 559.937 292.155 589.451 283.359 600.861 279.959 616.73 276.101 625.279 267.325 634.264 258.1 629.498 233.017 629.498 220.96L629.498 89.8977C553.301 119.452 471.992 126.471 391.037 130.016 291.018 134.396 187.422 133.644 88.8655 113.555 61.0458 107.884 35.7336 97.6618 8.77176 89.8977M56.1013 132.582C76.6048 130.413 80.3539 162.173 59.7335 164.259 38.6608 166.392 35.4857 134.763 56.1013 132.582M56.1013 198.094C82.3346 194.986 82.3954 259.853 59.7391 262.524 33.1669 265.657 33.4696 200.775 56.1013 198.094M578.529 214.305C593.973 213.07 603.494 233.111 590.856 243.345 582.494 250.116 566.961 250.943 556.686 252.998 529.584 258.42 502.24 262.209 474.772 264.955 464.824 265.95 451.729 269.046 442.086 265.117 427.488 259.168 432.284 238.639 445.654 234.745 464.149 229.357 486.527 230.514 505.717 227.748 529.822 224.275 554.386 216.237 578.529 214.305M8.77176 302.874 8.77176 428.476C8.77176 441.44 4.0123 466.465 11.6905 477.433 17.9577 486.386 31.6506 490.209 41.5374 493.381 67.6577 501.76 94.5757 506.966 121.631 511.162 170.754 518.781 219.573 521.036 269.076 523.204 292.805 524.243 320.136 529.041 343.709 524.452 363.571 520.587 381.399 504.74 401.959 499.898 415.745 496.651 429.679 495.279 443.826 495.899 450.752 496.203 460.596 500.292 467.155 497.288 481.07 490.914 493.464 466.904 505.717 456.58 539.915 427.765 584.638 410.302 629.498 410.273L629.498 302.874C609.21 308.674 590.254 317.525 569.428 322.125 507.694 335.761 444.814 340.239 381.936 342.993 278.58 347.519 172.135 344.538 70.6624 322.125 49.3251 317.412 29.6748 308.591 8.77176 302.874M54.2866 345.559C74.2062 340.667 81.6428 371.756 61.5538 376.69 41.6342 381.582 34.1976 350.493 54.2866 345.559M54.2866 411.09C81.4922 404.409 82.6732 469.8 61.5538 474.986 34.3483 481.668 33.1672 416.277 54.2866 411.09M616.756 443.812C581.715 448.582 548.172 460.089 522.1 484.977 508.955 497.525 497.254 523.151 481.883 531.654 470.945 537.704 453.741 529.563 442.006 528.756 421.17 527.322 398.529 532.463 380.115 542.226 352.691 556.767 329.032 581.62 317.228 610.507 311.588 624.308 310.964 648.147 300.807 658.938 292.856 667.384 277.832 665.229 267.256 667.09 251.289 669.899 236.778 676.619 223.569 685.939 158.442 731.89 156.971 833.72 212.648 887.123 255.337 928.069 320.528 916.32 374.655 916.32L662.264 916.32C708.633 916.32 760.287 922.727 806.069 915.52 922.293 897.226 957.176 746.217 890.405 661.476 876.979 644.436 858.879 629.94 838.834 621.456 827.061 616.472 806.11 615.407 798.247 604.848 786.04 588.459 786.039 558.612 776.491 539.515 747.822 482.169 683.751 434.693 616.756 443.812M8.77176 515.851 8.77176 654.195C8.77176 667.497 3.49191 695.59 11.6905 706.596 18.7369 716.055 36.1963 720.586 46.9983 723.875 79.0789 733.642 113.656 740.749 147.115 743.39 156.51 702.801 187.95 665.663 225.389 647.798 237.944 641.807 265.598 639.832 274.803 630.789 280.87 624.829 281.898 611 285.227 603.226 292.188 586.971 302.412 573.043 310.944 557.718 234.084 557.718 155.289 552.077 79.7639 536.877 55.6065 532.015 32.6168 520.088 8.77176 515.851M52.4873 558.823C71.5944 551.826 82.708 581.771 63.353 589.125 44.0933 596.444 33.0727 565.934 52.4873 558.823M52.5379 624.186C81.0317 615.315 82.7475 680.01 63.3531 687.127 34.9258 697.559 32.8841 630.305 52.5379 624.186Z" fill="#020202" transform="matrix(1.00107 0 0 1 -69.0001 891)"/></g></g></g><text font-family="Arial,Arial_MSFontService,sans-serif" font-weight="700" font-size="128" transform="matrix(1 0 0 1 -70.2048 2098)">Data Collection</text><g><g><g><path d="M1929.74 1780.7C1918.87 1778.93 1908.68 1775.98 1901.12 1772.43L1893.01 1768.62 1899.4 1761.55C1914.92 1744.36 1923.07 1716.94 1919.25 1694.67 1916.5 1678.61 1910.09 1665.92 1903.6 1663.69 1896.87 1661.38 1889.3 1664.19 1885.9 1670.26 1883.47 1674.58 1883.62 1676.42 1887.43 1689.26 1892.21 1705.35 1891.79 1714.47 1885.64 1728.4 1879.1 1743.2 1861.49 1757.98 1842.62 1764.51 1830.33 1768.76 1807.79 1770.05 1795.57 1767.21 1763.4 1759.72 1736.43 1732.77 1729.7 1701.39 1726.49 1686.4 1727.29 1684.93 1741.23 1680.07 1771.33 1669.57 1795.22 1652.31 1803.97 1634.74 1809.67 1623.32 1809.99 1615.24 1804.97 1609.85 1796.28 1600.52 1785.34 1603.77 1779.49 1617.41 1773.27 1631.92 1754.71 1644.59 1725.13 1654.52 1712.15 1658.87 1710.14 1659.08 1698.21 1657.23 1646.83 1649.25 1610.83 1604.21 1614.88 1552.97 1616.4 1533.71 1621.85 1518.92 1633.66 1501.95 1643.71 1487.51 1645.57 1481.04 1641.28 1475.45 1638.38 1471.67 1631.93 1468.27 1627.66 1468.27 1621.39 1468.27 1598.78 1456.03 1589.53 1447.65 1566.55 1426.79 1556.19 1392.53 1563.92 1362.88 1568.01 1347.16 1575.2 1334.93 1587.68 1322.45 1602.45 1307.68 1615.07 1301.08 1630.61 1300.01 1648.41 1298.79 1659.87 1303.64 1675.48 1319.03 1686.75 1330.13 1688.28 1331.06 1693.68 1330.01 1701.24 1328.55 1705.99 1322.77 1705.99 1315.03 1705.99 1310.15 1703.91 1306.67 1695.63 1297.73 1689.93 1291.57 1681.65 1284.41 1677.22 1281.82 1658.22 1270.68 1632.35 1267.21 1612.43 1273.13 1603.09 1275.9 1602.45 1275.88 1600.1 1272.67 1590.57 1259.65 1588.16 1219.87 1595.59 1198.36 1604.84 1171.6 1627.62 1147.95 1652.67 1139.12L1660.38 1136.4 1670.24 1146.5C1675.88 1152.28 1684.33 1158.53 1689.99 1161.12 1708.45 1169.58 1734.21 1168.9 1744.04 1159.71 1753.93 1150.47 1745.65 1132.76 1732.61 1135.25 1715.51 1138.51 1713.02 1138.53 1705.08 1135.5 1686.57 1128.43 1675.66 1105.13 1675.82 1073.05 1675.93 1051.75 1680.13 1037.08 1690.76 1020.9 1709.73 992.007 1739.45 976.014 1773.85 976.187 1788.79 976.262 1794.05 977.202 1810.83 982.809 1821.59 986.404 1832.9 990.641 1835.96 992.226 1844.61 996.699 1854.59 1007.86 1859.83 1018.94 1864.17 1028.1 1864.63 1031.2 1864.79 1052.71 1864.95 1075.01 1865.21 1076.59 1869.13 1079.76 1877.91 1086.87 1889.73 1082.38 1892.97 1070.7 1895.75 1060.7 1895.3 1034.14 1892.15 1022.05 1886.14 998.959 1869.52 976.92 1850.41 966.683 1845.12 963.847 1840.52 961.318 1840.19 961.061 1838.67 959.865 1846.16 948.678 1854.93 939.064 1879.46 912.173 1915.68 900.646 1949.91 908.833 1975.96 915.063 2001.29 934.525 2013.64 957.789L2019.6 969.021 2019.6 1065.51C2019.6 1118.57 2019.29 1161.99 2018.91 1161.99 2018.53 1161.99 2015.09 1160.69 2011.27 1159.09 1992.14 1151.1 1967.51 1152.28 1946.75 1162.19 1930.49 1169.95 1925.48 1181.77 1934.94 1190.07 1941.12 1195.49 1945.71 1195.37 1957.89 1189.5 1976.39 1180.58 1995.36 1181.64 2012.72 1192.56L2019.6 1196.89 2019.6 1266.77 2019.6 1336.65 2015.47 1335.47C1988.71 1327.84 1980.75 1327.26 1963.71 1331.7 1939.19 1338.09 1926.98 1348.97 1931.66 1360.27 1935.94 1370.61 1944.95 1371.89 1959.6 1364.24 1976.93 1355.18 2002.02 1358.02 2016.39 1370.65 2019.41 1373.3 2019.6 1384.19 2019.58 1550.62L2019.57 1727.78 2014.29 1736.95C2003.9 1755.02 1980.78 1773.04 1961.8 1777.86 1952.62 1780.19 1935.77 1781.69 1929.74 1780.7ZM1790.49 1512.43C1793.49 1509.43 1795.85 1505.09 1795.85 1502.59 1795.85 1496.97 1789.32 1488.44 1785.01 1488.44 1783.23 1488.44 1776.67 1485.89 1770.43 1482.78 1750.15 1472.64 1739.17 1452.11 1741.55 1428.8 1742.54 1419.15 1742.17 1416.78 1739.05 1412.81 1731.1 1402.71 1716.91 1405.75 1713.42 1418.3 1711 1427 1710.97 1439.36 1713.34 1451.84 1718.72 1480.22 1740.4 1504.51 1769.24 1514.49 1781.84 1518.84 1784.32 1518.6 1790.49 1512.43ZM1935.91 1497.48C1939.59 1494.58 1940.74 1492.05 1940.74 1486.79 1940.74 1475.76 1935.67 1472.51 1916.9 1471.54 1905.88 1470.97 1899.16 1469.61 1893.97 1466.91 1880.22 1459.73 1867.86 1443.3 1864.65 1427.92 1862.07 1415.51 1851.62 1409.77 1841.5 1415.19 1828.96 1421.9 1836.95 1453.08 1856.75 1474.75 1873.16 1492.7 1892.07 1501.12 1916.19 1501.22 1928.53 1501.27 1931.9 1500.63 1935.91 1497.48ZM1867.25 1277.6C1869.06 1276.63 1871.55 1273.4 1872.79 1270.42 1875.92 1262.85 1871.61 1254.42 1858.45 1242.39 1838.94 1224.54 1813.2 1216.41 1789.38 1220.56 1775.77 1222.93 1760.6 1229.29 1754.09 1235.36 1749.3 1239.82 1748.65 1249.11 1752.71 1254.91 1757.39 1261.59 1763.54 1261.69 1776.79 1255.3 1786.63 1250.55 1791.08 1249.49 1801.06 1249.49 1817.74 1249.51 1829.06 1254.66 1842.71 1268.46 1853.82 1279.68 1859.45 1281.78 1867.25 1277.6ZM2147.89 1722.63C2123.27 1715.69 2109.03 1697.25 2107.95 1670.92 2107.41 1657.62 2107.87 1655.24 2112.84 1645.45L2118.33 1634.65 2111.64 1623.94 2104.94 1613.24 2074.65 1612.74 2044.36 1612.24 2044.36 1593.9 2044.36 1575.56 2081.52 1575.06C2111.62 1574.66 2119.68 1575.08 2123.97 1577.31 2127.34 1579.05 2133.16 1586.41 2139.94 1597.52L2150.6 1614.99 2161.8 1614.99C2176.55 1614.99 2188.09 1619.12 2198.21 1628.03 2222.07 1649.03 2223.17 1686.06 2200.6 1708.16 2186.78 1721.68 2165.38 1727.56 2147.89 1722.63ZM2279.94 1722.63C2250.49 1714.33 2233.18 1685.55 2240.49 1657.02 2244.08 1642.99 2251.84 1631.67 2262.86 1624.37 2267.6 1621.23 2272.17 1618.66 2273.01 1618.66 2273.84 1618.66 2274.52 1606.34 2274.52 1591.3L2274.52 1563.94 2253.21 1539.04 2231.89 1514.15 2138.13 1513.68 2044.36 1513.2 2043.84 1494.4 2043.31 1475.6 2143.21 1475.6C2200.64 1475.6 2245.02 1476.33 2247.61 1477.32 2251.96 1478.97 2309 1544.26 2311.53 1550.48 2312.22 1552.17 2312.85 1567.99 2312.94 1585.64L2313.09 1617.74 2322.2 1622.76C2344.53 1635.08 2355.05 1667.04 2344.57 1690.73 2333.72 1715.25 2304.66 1729.6 2279.94 1722.63ZM2428.57 1556.42C2416.22 1552.66 2400.33 1539.06 2395.23 1527.87L2393.14 1523.29 2363.45 1523.29C2347.12 1523.29 2331.27 1522.42 2328.22 1521.36 2324.41 1520.03 2310.55 1505.46 2283.72 1474.59L2244.76 1429.75 2144.1 1429.75 2043.44 1429.75 2043.44 1410.5 2043.44 1391.24 2149.69 1391.24C2208.49 1391.24 2257.89 1391.98 2260.3 1392.9 2262.7 1393.81 2282.32 1414.85 2303.9 1439.66L2343.14 1484.77 2367.98 1484.77 2392.82 1484.77 2397.35 1476.25C2402.46 1466.61 2415.95 1455.07 2426.26 1451.52 2430.06 1450.21 2438.53 1449.13 2445.09 1449.11 2466.09 1449.06 2485.38 1461.34 2495.01 1480.87 2501.22 1493.49 2500.82 1515.16 2494.13 1528.1 2488.11 1539.75 2475.1 1551.43 2463.91 1555.25 2455.12 1558.24 2436.58 1558.86 2428.57 1556.42ZM2043.44 1276.62 2043.44 1257.36 2144.1 1257.36 2244.76 1257.36 2283.72 1212.52C2310.55 1181.65 2324.41 1167.09 2328.22 1165.76 2331.27 1164.7 2347.12 1163.83 2363.45 1163.83L2393.14 1163.83 2395.23 1159.25C2398.59 1151.88 2412.2 1138.16 2420.24 1134.04 2430.6 1128.73 2450.91 1127.58 2463.04 1131.61 2474.76 1135.5 2487.97 1147.04 2493.74 1158.44 2509.73 1189.98 2493.11 1226.35 2458.03 1236.6 2436.15 1242.99 2409.95 1232.21 2398.32 1212.01L2392.82 1202.46 2367.98 1202.4 2343.14 1202.34 2303.9 1247.45C2282.32 1272.26 2262.7 1293.31 2260.3 1294.22 2257.89 1295.13 2208.49 1295.87 2149.69 1295.87L2043.44 1295.87ZM2043.84 1192.71 2044.36 1173.91 2138.13 1173.44 2231.89 1172.96 2253.21 1148.07 2274.52 1123.18 2274.5 1096.28 2274.47 1069.38 2265.36 1064.35C2243.03 1052.04 2232.52 1020.07 2243 996.385 2258.5 961.333 2302.64 951.937 2331.09 977.635 2357.6 1001.59 2352.91 1047.42 2322.2 1064.35L2313.09 1069.38 2313.06 1101.67C2313.04 1133.01 2312.9 1134.17 2308.49 1140.67 2298.78 1154.98 2250.52 1209.29 2246.58 1210.35 2244.3 1210.96 2197.63 1211.47 2142.87 1211.49L2043.31 1211.51ZM2043.44 1093.22 2043.44 1073.96 2074.16 1073.94 2104.88 1073.92 2111.57 1063.12 2118.25 1052.32 2112.94 1041.79C2103.25 1022.57 2106.44 997.724 2120.67 981.551 2141.58 957.798 2177.78 956.624 2200.6 978.96 2227 1004.8 2220.04 1049.97 2187.1 1066.65 2180.62 1069.92 2174.45 1071.31 2164.14 1071.82L2150.04 1072.51 2139.76 1089.73C2133.1 1100.9 2127.6 1107.93 2124.15 1109.72 2119.91 1111.91 2111.07 1112.48 2081.13 1112.48L2043.44 1112.48Z"/></g></g></g><text font-family="Arial,Arial_MSFontService,sans-serif" font-weight="700" font-size="128" transform="matrix(1 0 0 1 1627.1 2091)">A.I. Modeling</text><g><g><g><path d="M3287.44 1784.78C3276.46 1780.01 3270.35 1774.36 3265.96 1764.95 3256.18 1743.94 3264.49 1719.83 3284.35 1711.66L3292.57 1708.28 3292.57 1585.19C3292.58 1491.89 3293.11 1461.56 3294.77 1459.91 3296.39 1458.28 3314.68 1457.72 3365.8 1457.72L3434.66 1457.72 3439.27 1466.83 3443.89 1475.94 3377.35 1475.94 3310.8 1475.94 3310.8 1592.2 3310.8 1708.46 3317.11 1710.74C3326.25 1714.05 3337.35 1727.49 3339.98 1738.42 3347.23 1768.65 3315.27 1796.87 3287.45 1784.78ZM3648.83 1784.92C3638.93 1781.27 3626.87 1768.2 3624.18 1758.21 3619.3 1740.06 3627.61 1720.81 3643.76 1712.9L3653.17 1708.28 3653.28 1654.98 3653.39 1601.68 3662.5 1601.68 3671.61 1601.68 3671.72 1654.98 3671.83 1708.28 3681.24 1712.9C3707.92 1725.97 3709.56 1765.05 3684.08 1780.79 3673.83 1787.14 3659.41 1788.82 3648.83 1784.92ZM4042.55 1747.38C4032.54 1742.38 4027.65 1737.34 4023.84 1728.09L4020.58 1720.14 3897.48 1720.13C3804.18 1720.13 3773.86 1719.6 3772.2 1717.94 3770.58 1716.32 3770.01 1698.05 3770.01 1647.03L3770.01 1578.3 3778.44 1573.59C3783.08 1571 3787.18 1568.88 3787.55 1568.88 3787.93 1568.88 3788.24 1598.81 3788.24 1635.39L3788.24 1701.9 3904.66 1701.9 4021.09 1701.9 4022.26 1697.24C4024.39 1688.76 4037.37 1676.74 4048.04 1673.38 4056.52 1670.7 4059.13 1670.61 4068.33 1672.66 4086.73 1676.76 4099.8 1693.47 4099.83 1712.94 4099.85 1721.56 4091.74 1737.42 4084.62 1742.7 4072.47 1751.72 4055.11 1753.65 4042.55 1747.38ZM3417.24 1692.02C3409.47 1688.64 3398.84 1677.27 3396.32 1669.63 3395.17 1666.14 3394.55 1658.11 3394.96 1651.8 3395.8 1638.6 3401.17 1629.21 3412.12 1621.8 3419.93 1616.51 3437.87 1614.61 3448.09 1617.98 3456.31 1620.7 3468.51 1632.84 3471.2 1640.97L3473.27 1647.24 3505.02 1647.24 3536.76 1647.24 3536.76 1608.03 3536.76 1568.82 3545.88 1573.43 3554.99 1578.05 3554.99 1618.66C3554.99 1647.81 3554.37 1659.88 3552.8 1661.45 3551.24 1663.01 3539.59 1663.64 3511.94 1663.64L3473.27 1663.64 3471.23 1669.81C3468.69 1677.5 3457.94 1688.77 3449.96 1692.1 3442.36 1695.28 3424.62 1695.23 3417.24 1692.02ZM3951.33 1615.06C3943.34 1610.85 3935.99 1603.53 3932.03 1595.83 3927.87 1587.75 3927.4 1571.52 3931.07 1562.74 3934.4 1554.76 3945.67 1544.02 3953.35 1541.48L3959.53 1539.44 3959.53 1507.69 3959.53 1475.94 3920.35 1475.94C3898.8 1475.94 3881.17 1475.64 3881.17 1475.26 3881.17 1474.89 3883.29 1470.79 3885.88 1466.15L3890.59 1457.72 3931.08 1457.72C3960.13 1457.72 3972.17 1458.34 3973.74 1459.91 3975.31 1461.47 3975.93 1473.12 3975.93 1500.77L3975.93 1539.44 3982.1 1541.48C3989.79 1544.02 4001.06 1554.76 4004.39 1562.74 4007.81 1570.91 4007.58 1587.77 4003.97 1594.94 3999.83 1603.14 3992.57 1610.53 3984.66 1614.6 3976.28 1618.91 3959.1 1619.15 3951.33 1615.06ZM3636.08 1582.33C3579.86 1573.77 3534.26 1551.59 3497.69 1515.02 3455.93 1473.27 3432.44 1419.3 3429.92 1359.32 3424.23 1223.9 3535.42 1112.25 3670.7 1117.53 3707.55 1118.97 3736.41 1126.45 3768.88 1142.99 3831.73 1175 3875.9 1233.28 3891.4 1304.65 3896.11 1326.34 3896.11 1374.07 3891.4 1395.76 3871.28 1488.39 3803.72 1556.99 3711.7 1578.23 3696.56 1581.72 3649.02 1584.3 3636.08 1582.33ZM3708.47 1480C3712.47 1475.99 3712.63 1474.55 3713.17 1438.64L3713.73 1401.44 3750.94 1400.88C3800.72 1400.13 3796.44 1404.92 3796.44 1350L3796.44 1307.98 3791.32 1303.58C3786.29 1299.25 3785.65 1299.18 3749.97 1299.18L3713.73 1299.18 3713.17 1261.87C3712.42 1211.97 3717.22 1216.27 3662.29 1216.27L3620.27 1216.27 3615.87 1221.38C3611.54 1226.42 3611.48 1227.05 3611.48 1262.84L3611.48 1299.18 3575.13 1299.18C3539.34 1299.18 3538.71 1299.25 3533.68 1303.58L3528.56 1307.98 3528.56 1350C3528.56 1404.93 3524.26 1400.13 3574.17 1400.88L3611.48 1401.44 3611.48 1437.37C3611.48 1475.87 3612.26 1479.56 3621.24 1483.3 3623.39 1484.19 3642.96 1484.75 3664.73 1484.53 3703.23 1484.15 3704.43 1484.03 3708.47 1480ZM3249.76 1386.97C3233.94 1379.5 3226.22 1367.43 3226.13 1350.06 3226.08 1339.85 3226.88 1336.76 3231.56 1329.19 3243.26 1310.26 3267.27 1304.78 3286.46 1316.64 3292.89 1320.62 3296.41 1324.52 3299.81 1331.46L3304.42 1340.88 3357.73 1340.99 3411.03 1341.1 3411.03 1350.21 3411.03 1359.32 3357.73 1359.43 3304.42 1359.53 3299.81 1368.95C3291.06 1386.81 3267.42 1395.32 3249.76 1386.97ZM4041.68 1385.47C4034.78 1382.04 4030.49 1378.27 4026.74 1372.36 4023.85 1367.8 4021.49 1363 4021.49 1361.7 4021.49 1359.79 4010.71 1359.32 3967.73 1359.32L3913.97 1359.32 3913.97 1350.21 3913.97 1341.1 3967.27 1340.99 4020.58 1340.88 4025.19 1331.46C4038.43 1304.45 4077.34 1303.15 4093.44 1329.19 4098.12 1336.76 4098.92 1339.85 4098.87 1350.06 4098.78 1367.88 4091.36 1379.44 4075.24 1386.86 4064.72 1391.7 4053.23 1391.23 4041.68 1385.47ZM3350.66 1239.69C3348.79 1237.43 3347.93 1227.14 3347.25 1198.77L3346.34 1160.86 3338.14 1156.54C3333.62 1154.15 3327.48 1148.73 3324.47 1144.45 3319.46 1137.34 3319 1135.42 3319 1121.66 3319 1108.17 3319.53 1105.87 3324.09 1099.28 3331.28 1088.91 3344.1 1082.33 3357.13 1082.33 3387.47 1082.33 3406.2 1114.04 3391.65 1140.78 3386.95 1149.41 3377.77 1157.29 3369.57 1159.72 3365.52 1160.92 3365.47 1161.34 3365.47 1192.7L3365.47 1224.47 3404.65 1224.47C3426.2 1224.47 3443.83 1224.78 3443.83 1225.15 3443.83 1225.53 3441.71 1229.63 3439.12 1234.26L3434.41 1242.69 3393.78 1242.69C3358.25 1242.69 3352.85 1242.32 3350.66 1239.69ZM3885.88 1234.26C3883.29 1229.63 3881.17 1225.53 3881.17 1225.15 3881.17 1224.78 3911.1 1224.47 3947.68 1224.47L4014.2 1224.47 4014.2 1108.04 4014.2 991.616 4009.53 990.445C4001.05 988.316 3989.03 975.336 3985.67 964.671 3983 956.185 3982.91 953.578 3984.95 944.377 3989.05 925.978 4005.76 912.904 4025.23 912.873 4033.86 912.86 4049.71 920.963 4055 928.085 4071.06 949.736 4062.84 980.952 4038.8 989.646L4032.42 991.953 4032.42 1115.14C4032.42 1208.52 4031.89 1238.85 4030.23 1240.51 4028.61 1242.13 4010.34 1242.69 3959.32 1242.69L3890.59 1242.69ZM3536.76 1065.02 3536.76 998.51 3420.34 998.51 3303.91 998.51 3302.74 1003.17C3300.61 1011.66 3287.63 1023.67 3276.96 1027.03 3268.48 1029.71 3265.87 1029.8 3256.67 1027.75 3248.11 1025.85 3244.51 1023.8 3237.66 1016.97 3224.33 1003.66 3221.66 988.013 3229.9 971.483 3244.55 942.088 3285.91 941.59 3299.87 970.64L3304.42 980.122 3427.52 980.204C3520.74 980.267 3551.14 980.818 3552.8 982.474 3554.42 984.097 3554.99 1002.36 3554.99 1053.39L3554.99 1122.11 3546.56 1126.82C3541.92 1129.42 3537.82 1131.54 3537.45 1131.54 3537.07 1131.54 3536.76 1101.6 3536.76 1065.02ZM3777.76 1126.66 3770.01 1122.15 3770.01 1081.65C3770.01 1052.58 3770.63 1040.53 3772.2 1038.96 3773.76 1037.4 3785.37 1036.77 3812.75 1036.75L3851.1 1036.72 3855.66 1027.26C3862.32 1013.43 3872.21 1007.03 3888.31 1006.12 3897.42 1005.6 3902.52 1006.24 3907.29 1008.51 3921.69 1015.35 3930.37 1029.06 3930.37 1045 3930.37 1075.18 3898.59 1093.86 3871.93 1079.35 3863.3 1074.65 3855.42 1065.47 3852.99 1057.28 3851.79 1053.23 3851.37 1053.18 3820 1053.18L3788.24 1053.18 3788.24 1092.36C3788.24 1113.9 3787.62 1131.45 3786.87 1131.35 3786.12 1131.25 3782.02 1129.14 3777.76 1126.66ZM3653.28 1045.43 3653.17 992.132 3643.76 987.516C3616.74 974.278 3615.44 935.366 3641.48 919.269 3649.05 914.587 3652.14 913.783 3662.36 913.836 3675.76 913.904 3682.29 916.605 3691.28 925.802 3709.55 944.484 3704.39 976.173 3681.24 987.516L3671.82 992.132 3671.72 1045.43 3671.61 1098.73 3662.5 1098.73 3653.39 1098.73Z"/></g></g></g><text font-family="Arial,Arial_MSFontService,sans-serif" font-weight="700" font-size="128" transform="matrix(1 0 0 1 3084.45 2092)">Clinical Integration</text><g><g><g><path d="M5223.28 1812.24C5220.28 1811.35 5214.81 1808.14 5211.15 1805.11 5207.48 1802.07 5202.76 1796.05 5200.67 1791.72 5196.86 1783.86 5196.86 1783.86 5196.86 1501.91 5196.86 1227.09 5196.95 1219.79 5200.37 1213.08 5202.3 1209.29 5207.14 1203.25 5211.13 1199.65 5216.21 1195.06 5221.28 1192.5 5228.12 1191.08 5234.18 1189.82 5255.39 1189.24 5284.33 1189.55 5330.8 1190.04 5330.8 1190.04 5330.8 1210.08 5330.8 1230.13 5330.8 1230.13 5283.87 1230.61 5236.95 1231.1 5236.95 1231.1 5236.95 1502.59 5236.95 1774.07 5236.95 1774.07 5458.36 1774.07 5679.76 1774.07 5679.76 1774.07 5679.76 1502.56 5679.76 1231.04 5679.76 1231.04 5632.38 1231.04 5585 1231.04 5585 1231.04 5585 1209.96 5585 1188.88 5585 1188.88 5637.39 1189.46 5687 1190.01 5690.17 1190.25 5697.07 1193.97 5701.08 1196.13 5706.57 1200.23 5709.28 1203.08 5711.98 1205.93 5715.46 1211.31 5717.02 1215.04 5719.54 1221.06 5719.85 1252.84 5719.85 1502.29 5719.85 1782.77 5719.85 1782.77 5714.76 1792.52 5711.05 1799.61 5707.25 1803.76 5700.78 1807.76 5691.89 1813.25 5691.89 1813.25 5460.32 1813.55 5330.04 1813.72 5226.36 1813.15 5223.28 1812.24ZM5291.62 1717.58C5288.14 1714.11 5287.97 1711.51 5287.97 1661.38 5287.97 1610.25 5288.08 1608.72 5291.81 1605.34 5295.32 1602.17 5298.82 1601.87 5332.62 1601.87 5366.42 1601.87 5369.92 1602.17 5373.43 1605.34 5375.84 1607.52 5377.26 1611.03 5377.26 1614.78 5377.26 1619.05 5375.9 1621.81 5372.46 1624.52 5368.09 1627.95 5365.22 1628.29 5340.57 1628.29 5313.49 1628.29 5313.49 1628.29 5313.49 1662.01 5313.49 1695.72 5313.49 1695.72 5347.2 1695.72 5380.91 1695.72 5380.91 1695.72 5380.91 1682.76 5380.91 1669.81 5380.91 1669.81 5369.87 1680.03 5363.8 1685.65 5357.19 1690.25 5355.17 1690.25 5353.16 1690.25 5349.97 1689.42 5348.08 1688.42 5346.2 1687.41 5340.1 1678.54 5334.54 1668.71 5328.97 1658.88 5324.42 1649.57 5324.42 1648.01 5324.42 1646.46 5326.15 1642.98 5328.27 1640.29 5331.4 1636.31 5333.37 1635.49 5338.75 1635.94 5344.52 1636.42 5346.18 1637.74 5351.6 1646.14 5357.82 1655.79 5357.82 1655.79 5385.44 1628.38 5404.41 1609.54 5414.33 1600.96 5417.11 1600.96 5419.34 1600.96 5423.18 1602.97 5425.64 1605.43 5428.12 1607.92 5430.11 1612.04 5430.11 1614.7 5430.11 1618.08 5426.91 1622.83 5419.29 1630.77 5408.47 1642.04 5408.47 1642.04 5407.9 1678.15 5407.34 1713.59 5407.25 1714.33 5403.03 1717.75 5399.02 1720.99 5395.2 1721.23 5347 1721.23 5297.69 1721.23 5295.09 1721.06 5291.62 1717.58ZM5450.72 1704.84C5448.52 1703.94 5445.35 1701.1 5443.67 1698.54 5441.13 1694.66 5440.98 1692.99 5442.77 1688.65 5443.96 1685.78 5446.97 1682.51 5449.45 1681.38 5452.6 1679.94 5478.82 1679.32 5535.64 1679.32 5615.51 1679.32 5617.42 1679.4 5622.11 1683.09 5625.55 1685.8 5626.92 1688.56 5626.92 1692.83 5626.92 1696.58 5625.49 1700.09 5623.08 1702.27 5619.44 1705.56 5615.04 1705.76 5536.98 1706.11 5491.56 1706.31 5452.92 1705.74 5450.72 1704.84ZM5445.58 1639.2C5443.75 1637.19 5442.26 1632.96 5442.26 1629.81 5442.26 1626.05 5443.68 1622.93 5446.41 1620.72 5450.31 1617.56 5455.66 1617.36 5535.18 1617.36 5619.79 1617.36 5619.79 1617.36 5624.26 1621.83 5626.72 1624.29 5628.74 1628.24 5628.74 1630.6 5628.74 1632.96 5627.06 1636.69 5625.02 1638.88 5621.31 1642.87 5621.31 1642.87 5535.1 1642.87 5451.03 1642.87 5448.82 1642.78 5445.58 1639.2ZM5095.09 1564.97C5093.02 1563.22 5090.82 1559.66 5090.21 1557.06 5089.38 1553.55 5090.33 1550.87 5093.88 1546.65 5098.66 1540.96 5098.66 1540.96 5037.7 1540.44 4980.73 1539.95 4976.49 1539.69 4972.91 1536.44 4969.11 1533 4969.08 1532.1 4969.08 1444.87 4969.08 1359.21 4969.18 1356.68 4972.72 1353.13 4974.73 1351.13 4978.68 1349.49 4981.52 1349.49 4984.54 1349.49 4988.3 1351.23 4990.63 1353.7 4994.57 1357.9 4994.59 1358.35 4994.59 1435.71 4994.59 1513.49 4994.59 1513.49 5047.29 1513.49 5100 1513.49 5100 1513.49 5094.67 1508.16 5091.74 1505.23 5089.35 1501.1 5089.35 1498.97 5089.35 1496.84 5091.36 1493.09 5093.82 1490.63 5096.28 1488.17 5100.27 1486.16 5102.7 1486.16 5105.31 1486.16 5114.82 1491.79 5126.02 1499.96 5136.42 1507.56 5146.81 1515.53 5149.11 1517.67 5152.25 1520.6 5153.16 1523.19 5152.76 1528.01 5152.26 1533.92 5150.38 1535.82 5129.7 1551.3 5116.66 1561.06 5105.43 1568.16 5103.02 1568.16 5100.73 1568.16 5097.17 1566.72 5095.09 1564.97ZM5292.77 1558.91C5287.97 1555.14 5287.97 1555.14 5287.97 1502.74 5287.97 1450.35 5287.97 1450.35 5292.19 1446.38 5296.23 1442.59 5297.93 1442.42 5333.19 1442.42 5367.55 1442.42 5370.22 1442.66 5373.62 1446.07 5375.64 1448.09 5377.26 1452.14 5377.26 1455.18 5377.26 1458.22 5375.64 1462.26 5373.62 1464.29 5370.29 1467.62 5367.55 1467.93 5341.73 1467.93 5313.49 1467.93 5313.49 1467.93 5313.49 1501.65 5313.49 1535.36 5313.49 1535.36 5347.2 1535.36 5380.91 1535.36 5380.91 1535.36 5380.91 1522.2 5380.91 1509.05 5380.91 1509.05 5370.38 1519.47 5362.2 1527.57 5358.61 1529.89 5354.3 1529.89 5350.84 1529.89 5347.36 1528.34 5345.07 1525.79 5343.06 1523.54 5337.58 1514.96 5332.91 1506.74 5328.24 1498.52 5324.42 1490.08 5324.42 1487.98 5324.42 1485.88 5326.43 1482.16 5328.89 1479.7 5331.35 1477.24 5334.86 1475.22 5336.69 1475.22 5338.51 1475.22 5341.76 1476.45 5343.91 1477.96 5346.05 1479.46 5349.66 1483.76 5351.92 1487.52 5354.18 1491.28 5356.31 1494.71 5356.66 1495.15 5357.01 1495.59 5369.43 1483.91 5384.27 1469.19 5407.38 1446.26 5412.06 1442.42 5416.9 1442.42 5420.84 1442.42 5423.7 1443.88 5426.33 1447.22 5428.41 1449.86 5430.11 1453.63 5430.11 1455.58 5430.11 1457.54 5425.19 1464.26 5419.18 1470.52 5408.24 1481.91 5408.24 1481.91 5408.24 1514.74 5408.24 1532.96 5407.39 1550.01 5406.33 1553.06 5405.28 1556.08 5402.37 1559.48 5399.87 1560.62 5396.83 1562 5379.09 1562.69 5346.45 1562.69 5299.77 1562.69 5297.36 1562.52 5292.77 1558.91ZM5446.41 1542.93C5443.6 1540.66 5442.26 1537.62 5442.26 1533.54 5442.26 1529.45 5443.6 1526.41 5446.41 1524.14 5450.31 1520.98 5455.66 1520.78 5535.09 1520.78 5617.2 1520.78 5619.73 1520.88 5623.27 1524.42 5625.29 1526.45 5626.92 1530.5 5626.92 1533.54 5626.92 1536.57 5625.29 1540.62 5623.27 1542.65 5619.73 1546.19 5617.2 1546.29 5535.09 1546.29 5455.66 1546.29 5450.31 1546.09 5446.41 1542.93ZM5446.41 1480.97C5443.68 1478.77 5442.26 1475.65 5442.26 1471.89 5442.26 1468.74 5443.75 1464.51 5445.58 1462.49 5448.82 1458.91 5451.03 1458.82 5535.1 1458.82 5621.31 1458.82 5621.31 1458.82 5625.02 1462.81 5627.06 1465 5628.74 1468.73 5628.74 1471.09 5628.74 1473.46 5626.72 1477.4 5624.26 1479.86 5619.79 1484.33 5619.79 1484.33 5535.18 1484.33 5455.66 1484.33 5450.31 1484.13 5446.41 1480.97ZM5291.62 1398.69C5288.15 1395.22 5287.97 1392.61 5287.97 1343.51 5287.97 1299.83 5288.41 1291.37 5290.81 1287.94 5293.59 1283.97 5294.42 1283.89 5332.44 1283.89 5367.71 1283.89 5371.51 1284.19 5374.25 1287.22 5375.91 1289.05 5377.26 1293.09 5377.26 1296.2 5377.26 1300.13 5375.8 1302.99 5372.46 1305.62 5368.09 1309.06 5365.22 1309.4 5340.57 1309.4 5313.49 1309.4 5313.49 1309.4 5313.49 1343.11 5313.49 1376.82 5313.49 1376.82 5347.2 1376.82 5380.91 1376.82 5380.91 1376.82 5380.91 1363.79 5380.91 1350.75 5380.91 1350.75 5370.11 1361.05 5363.88 1367 5357.66 1371.35 5355.41 1371.35 5353.27 1371.35 5349.97 1370.53 5348.08 1369.52 5346.2 1368.51 5340.1 1359.64 5334.54 1349.81 5328.97 1339.98 5324.42 1330.67 5324.42 1329.12 5324.42 1327.56 5326.12 1324.13 5328.2 1321.49 5330.76 1318.22 5333.71 1316.69 5337.39 1316.69 5340.68 1316.69 5344.39 1318.34 5346.82 1320.9 5349.03 1323.22 5352.31 1327.86 5354.12 1331.22 5357.39 1337.32 5357.39 1337.32 5385.45 1309.47 5411.3 1283.81 5413.91 1281.71 5418.62 1282.83 5421.43 1283.5 5425.17 1285.74 5426.92 1287.81 5428.68 1289.88 5430.11 1293.61 5430.11 1296.09 5430.11 1299.12 5426.55 1304.3 5419.29 1311.87 5408.47 1323.14 5408.47 1323.14 5407.9 1358.9 5407.39 1391.05 5406.98 1395.06 5403.86 1398.5 5400.49 1402.23 5398.93 1402.33 5347.83 1402.33 5297.69 1402.33 5295.09 1402.16 5291.62 1398.69ZM5448.92 1385.59C5446.73 1384.53 5444 1381.38 5442.84 1378.59 5441.31 1374.88 5441.28 1372.5 5442.73 1369.79 5443.82 1367.75 5446.53 1364.8 5448.75 1363.25 5452.25 1360.79 5463.67 1360.42 5535.05 1360.42 5615.51 1360.42 5617.42 1360.5 5622.11 1364.2 5625.6 1366.94 5626.92 1369.65 5626.92 1374.09 5626.92 1378.52 5625.6 1381.24 5622.11 1383.98 5617.41 1387.68 5615.61 1387.75 5535.1 1387.63 5481.5 1387.55 5451.51 1386.84 5448.92 1385.59ZM5450.72 1323.96C5448.52 1323.07 5445.35 1320.25 5443.67 1317.68 5441.13 1313.81 5440.98 1312.13 5442.77 1307.8 5443.96 1304.93 5446.97 1301.65 5449.45 1300.52 5452.6 1299.09 5479.14 1298.46 5536.88 1298.46 5619.79 1298.46 5619.79 1298.46 5624.26 1302.94 5626.72 1305.4 5628.74 1309.14 5628.74 1311.26 5628.74 1313.37 5627.93 1316.6 5626.95 1318.44 5625.97 1320.27 5622.57 1322.68 5619.39 1323.78 5615.5 1325.14 5587.76 1325.76 5534.16 1325.68 5490.46 1325.62 5452.91 1324.84 5450.72 1323.96ZM4961.79 1296.08C4961.79 1284.33 4961 1278.03 4959.21 1275.58 4957.03 1272.59 4953.7 1271.9 4937.8 1271.13 4918.96 1270.22 4918.96 1270.22 4918.45 1250.63 4917.93 1231.04 4917.93 1231.04 4935.39 1231.04 4951.49 1231.04 4953.19 1230.69 4957.31 1226.57 4961.44 1222.44 4961.79 1220.74 4961.79 1204.64 4961.79 1187.18 4961.79 1187.18 4981.38 1187.7 5000.97 1188.22 5000.97 1188.22 5001.88 1207.05 5002.65 1222.95 5003.34 1226.28 5006.33 1228.46 5008.78 1230.25 5015.08 1231.04 5026.83 1231.04 5043.79 1231.04 5043.79 1231.04 5043.79 1251.08 5043.79 1271.13 5043.79 1271.13 5025.85 1271.13 5010.78 1271.13 5007.43 1271.66 5004.89 1274.46 5002.52 1277.08 5001.88 1281.58 5001.88 1295.42 5001.88 1313.04 5001.88 1313.04 4981.83 1313.04 4961.79 1313.04 4961.79 1313.04 4961.79 1296.08ZM5355.4 1209.11C5355.4 1194.12 5356.23 1185.2 5358.03 1180.89 5359.74 1176.8 5362.96 1173.49 5367.2 1171.47 5373.42 1168.51 5374.77 1168.53 5395.48 1172.06 5417.22 1175.77 5417.22 1175.77 5418.44 1167.42 5419.11 1162.82 5421.11 1156.19 5422.88 1152.68 5424.66 1149.17 5428.04 1144.55 5430.39 1142.42 5432.74 1140.28 5437.54 1137.03 5441.04 1135.2 5445.08 1133.1 5451.44 1131.85 5458.36 1131.81 5467.04 1131.75 5471.02 1132.75 5477.69 1136.67 5482.3 1139.38 5487.63 1143.89 5489.52 1146.68 5491.42 1149.48 5493.99 1154.12 5495.25 1156.99 5496.51 1159.86 5497.53 1165.41 5497.53 1169.33 5497.53 1175.76 5497.93 1176.35 5501.63 1175.53 5503.89 1175.03 5512.59 1173.38 5520.97 1171.85 5529.35 1170.33 5538.66 1169.08 5541.65 1169.08 5545.42 1169.08 5549.01 1171 5553.3 1175.28 5559.49 1181.47 5559.49 1181.47 5559.49 1206.26 5559.49 1231.04 5559.49 1231.04 5457.44 1231.04 5355.4 1231.04 5355.4 1231.04 5355.4 1209.11ZM4826.94 1203.14C4826.94 1201.82 4828.64 1194.24 4830.73 1186.28 4832.81 1178.33 4837.71 1165.26 4841.63 1157.24 4845.55 1149.22 4853.73 1136.38 4859.82 1128.71 4865.9 1121.05 4876.78 1110.06 4883.99 1104.29 4891.2 1098.53 4904.48 1090.26 4913.5 1085.9 4922.52 1081.55 4936.38 1076.34 4944.31 1074.33 4952.24 1072.32 4962.08 1070.62 4966.18 1070.55 4973.59 1070.42 4973.56 1070.4 4962.43 1067.21 4956.26 1065.45 4947.08 1061.35 4942.02 1058.1 4936.96 1054.86 4929.82 1048.87 4926.15 1044.81 4922.47 1040.74 4917.04 1032.23 4914.07 1025.88 4910.25 1017.71 4908.38 1010.41 4907.65 1000.83 4906.84 990.103 4907.43 984.661 4910.51 974.511 4913 966.335 4917.32 957.866 4922.48 951.052 4926.93 945.187 4934.61 937.673 4939.55 934.354 4944.48 931.035 4953.63 926.729 4959.87 924.787 4966.12 922.844 4976.1 921.254 4982.05 921.254 4988.18 921.254 4997.74 922.891 5004.06 925.021 5010.21 927.092 5018.64 931.123 5022.79 933.978 5026.94 936.833 5033.45 942.625 5037.27 946.849 5041.09 951.073 5046.2 958.874 5048.63 964.185 5051.06 969.497 5053.82 978.592 5054.77 984.398 5055.88 991.239 5055.83 999.043 5054.63 1006.57 5053.61 1012.96 5050.39 1022.92 5047.46 1028.71 5044.54 1034.49 5038.32 1043.06 5033.63 1047.75 5028.94 1052.44 5021.1 1058.3 5016.2 1060.79 5011.3 1063.27 5003 1066.46 4997.75 1067.87 4988.21 1070.44 4988.21 1070.44 4995.5 1070.57 4999.51 1070.65 5009.61 1072.34 5017.95 1074.34 5026.28 1076.34 5039.27 1080.82 5046.81 1084.31 5054.35 1087.79 5065.61 1094.27 5071.83 1098.71 5078.05 1103.15 5088.08 1112.06 5094.12 1118.51 5100.15 1124.97 5108.53 1135.5 5112.74 1141.92 5116.94 1148.34 5122.84 1159.96 5125.85 1167.75 5128.86 1175.53 5132.44 1187.22 5133.8 1193.71 5136.28 1205.53 5136.28 1205.53 5080.92 1205.53 5025.57 1205.53 5025.57 1205.53 5025.57 1187.59 5025.57 1172.52 5025.03 1169.16 5022.23 1166.63 5019.36 1164.03 5013.74 1163.62 4981.37 1163.62 4943.83 1163.62 4943.83 1163.62 4940.05 1168.42 4936.88 1172.45 4936.28 1175.79 4936.28 1189.37 4936.28 1205.53 4936.28 1205.53 4881.61 1205.53 4837.72 1205.53 4826.94 1205.06 4826.94 1203.14ZM5452.89 1085.01C5450.88 1084 5442.07 1073.51 5433.3 1061.69 5423.58 1048.59 5417.35 1038.49 5417.35 1035.81 5417.35 1033.38 5418.63 1029.58 5420.19 1027.35 5422.29 1024.35 5424.86 1023.3 5430.08 1023.3 5435.53 1023.3 5437.99 1024.39 5440.91 1028.1 5444.69 1032.9 5444.69 1032.9 5444.69 1006.24 5444.69 979.567 5444.69 979.567 5291.86 979.567 5140.01 979.567 5139.01 979.543 5134.24 975.79 5131 973.247 5129.44 970.271 5129.44 966.679 5129.44 963.745 5131.08 959.704 5133.08 957.7 5136.67 954.109 5139.16 954.055 5300.45 954.055 5464.17 954.055 5464.17 954.055 5467.64 957.885 5470.72 961.285 5471.21 965.614 5472.02 996.352 5472.92 1030.57 5472.98 1030.94 5476.4 1027.14 5478.62 1024.69 5482.08 1023.3 5485.97 1023.3 5489.64 1023.3 5493.52 1024.75 5495.71 1026.95 5497.72 1028.95 5499.36 1032.59 5499.36 1035.04 5499.36 1037.79 5493.11 1047.86 5482.92 1061.52 5473.24 1074.5 5464.58 1084.28 5461.85 1085.32 5459.29 1086.29 5457.06 1087.02 5456.87 1086.96 5456.68 1086.89 5454.89 1086.01 5452.89 1085.01Z"/></g></g></g><text font-family="Arial,Arial_MSFontService,sans-serif" font-weight="700" font-size="128" transform="matrix(1 0 0 1 4733.26 2092)">Patient Outcomes</text></g></svg>